# xmcd
#
# Track frame offsets:
#  150
#  14446
#  27647
#  40570
#  53846
#  67774
#  78492
#  90725
#  103821
#  110939
#  121200
#  134641
#  146972
#  160818
#
# Disc length: 2306 seconds
#
# Revision: 0
# Processed by: cddbd v1.5.1PL2 Copyright (c) Steve Scherf et al.
# Submitted via: Collectorz.com Music Collector 6.9
#
DISCID=c609000e
DTITLE=John Mayall - Hard Road
DYEAR=1967
DGENRE=Blues-Rock - British Blues
TTITLE0=A Hard Road
TTITLE1=It's Over
TTITLE2=You don't love me
TTITLE3=The Stumble
TTITLE4=Another kind of love
TTITLE5=Hit the Highway
TTITLE6=Leaping Christine
TTITLE7=Dust my Blues
TTITLE8=There's always work
TTITLE9=The same way
TTITLE10=The Supernatural
TTITLE11=Top of the Hill
TTITLE12=Someday after A While
TTITLE13=Living alone
EXTD=
EXTT0=
EXTT1=
EXTT2=
EXTT3=
EXTT4=
EXTT5=
EXTT6=
EXTT7=
EXTT8=
EXTT9=
EXTT10=
EXTT11=
EXTT12=
EXTT13=
PLAYORDER=
